<svg xmlns="http://www.w3.org/2000/svg" xmlns:xlink="http://www.w3.org/1999/xlink" width="500" zoomAndPan="magnify" viewBox="0 0 375 374.999991" height="500" preserveAspectRatio="xMidYMid meet" version="1.0"><defs><g/><clipPath id="68f168b25c"><path d="M 62 149 L 179 149 L 179 225 L 62 225 Z M 62 149 " clip-rule="nonzero"/></clipPath><clipPath id="5353519572"><path d="M 167.515625 138.914062 L 187.402344 191.53125 L 70.242188 235.8125 L 50.355469 183.195312 Z M 167.515625 138.914062 " clip-rule="nonzero"/></clipPath><clipPath id="c28c1b1e10"><path d="M 167.515625 138.914062 L 187.402344 191.53125 L 70.242188 235.8125 L 50.355469 183.195312 Z M 167.515625 138.914062 " clip-rule="nonzero"/></clipPath></defs><rect x="-37.5" width="450" fill="#ffffff" y="-37.499999" height="449.999989" fill-opacity="1"/><rect x="-37.5" width="450" fill="#ffffff" y="-37.499999" height="449.999989" fill-opacity="1"/><g clip-path="url(#68f168b25c)"><g clip-path="url(#5353519572)"><g clip-path="url(#c28c1b1e10)"><path fill="#ad882e" d="M 128.824219 213.402344 C 128.625 211.019531 129.136719 209.179688 130.148438 206.632812 C 130.671875 205.476562 130.417969 204.839844 130.148438 204.167969 C 130.011719 203.828125 129.871094 203.472656 129.816406 203.015625 C 129.765625 202.386719 129.972656 201.746094 130.191406 201.0625 C 130.382812 200.460938 130.585938 199.835938 130.617188 199.183594 C 131.109375 195.769531 129.984375 194.578125 128.957031 194.179688 C 126.980469 193.410156 123.90625 195.066406 122.097656 197.203125 C 121.984375 196.351562 121.804688 195.503906 121.339844 194.574219 C 120.816406 193.425781 120.027344 192.855469 119.230469 193.046875 C 118.359375 193.253906 117.785156 194.304688 117.828125 195.613281 C 115.765625 193.410156 111.675781 192.800781 106.863281 192.332031 C 108.367188 192.15625 109.898438 192.007812 111.472656 191.894531 C 122.511719 191.140625 130.386719 188.738281 135.550781 184.546875 C 135.59375 184.527344 135.636719 184.507812 135.679688 184.488281 C 132.898438 187.601562 131.535156 191.054688 131.746094 191.996094 C 131.753906 192.03125 131.765625 192.0625 131.777344 192.097656 C 131.859375 192.304688 132.019531 192.441406 132.226562 192.460938 C 132.238281 192.460938 132.25 192.464844 132.261719 192.464844 C 132.949219 192.460938 133.847656 191.9375 134.566406 191.515625 C 134.753906 191.40625 134.921875 191.304688 135.085938 191.21875 C 135.671875 190.851562 136.289062 190.527344 136.898438 190.222656 C 136.703125 190.46875 136.511719 190.722656 136.367188 190.964844 C 135.847656 191.621094 134.957031 192.886719 134.734375 194.128906 C 134.71875 194.25 134.691406 194.539062 134.785156 194.792969 C 134.835938 194.929688 134.921875 195.054688 135.070312 195.140625 C 135.582031 195.4375 136.316406 194.929688 136.902344 194.515625 L 137.089844 194.382812 C 138.519531 193.292969 140.136719 192.0625 141.722656 191.425781 C 141.433594 192.015625 141.273438 192.707031 141.246094 193.5 C 141.21875 194.242188 140.992188 194.859375 140.75 195.515625 C 140.546875 196.0625 140.339844 196.632812 140.257812 197.273438 C 140.21875 197.589844 140.195312 197.949219 140.296875 198.214844 C 140.351562 198.355469 140.4375 198.46875 140.578125 198.539062 C 140.996094 198.738281 141.480469 198.335938 141.941406 197.867188 C 142.429688 197.375 142.976562 196.921875 143.5 196.484375 C 144.109375 195.980469 144.730469 195.460938 145.273438 194.875 C 145.140625 195.285156 145.011719 195.703125 144.914062 196.128906 C 144.910156 196.140625 144.910156 196.148438 144.90625 196.15625 C 144.882812 196.316406 144.855469 196.488281 144.824219 196.667969 C 144.675781 197.558594 144.507812 198.566406 144.71875 199.359375 C 144.71875 199.367188 144.722656 199.378906 144.726562 199.390625 C 145.085938 200.332031 145.378906 200.875 145.816406 200.859375 C 146.167969 200.84375 146.457031 200.4375 146.824219 199.859375 C 146.882812 199.769531 146.957031 199.652344 146.980469 199.628906 C 147.003906 199.601562 147.023438 199.570312 147.039062 199.539062 C 147.226562 199.121094 147.375 198.726562 147.519531 198.339844 C 147.738281 197.757812 147.941406 197.207031 148.257812 196.691406 C 148.550781 196.199219 148.878906 195.710938 149.195312 195.238281 C 149.519531 194.757812 149.851562 194.261719 150.148438 193.765625 C 150.492188 193.230469 150.839844 192.75 151.175781 192.289062 C 151.269531 192.164062 151.359375 192.042969 151.445312 191.917969 C 151.355469 193.261719 151.324219 194.898438 151.578125 195.957031 C 151.65625 196.433594 151.804688 196.960938 151.996094 197.46875 C 152.1875 197.96875 152.417969 198.453125 152.667969 198.851562 C 152.679688 198.875 153.972656 201.15625 155.097656 201.023438 C 156.335938 200.933594 156.457031 198.542969 156.492188 197.714844 C 156.578125 197.304688 156.667969 196.816406 156.757812 196.304688 C 156.878906 195.644531 157.007812 194.921875 157.148438 194.292969 C 157.457031 194.703125 157.777344 195.085938 158.125 195.4375 C 158.597656 195.894531 159.011719 196.425781 159.417969 196.9375 C 160.046875 197.734375 160.699219 198.5625 161.605469 199.191406 C 161.734375 199.28125 161.90625 199.269531 162.019531 199.164062 C 162.515625 198.710938 162.714844 197.128906 162.730469 196.695312 C 162.832031 196.019531 162.644531 195.199219 162.480469 194.519531 C 162.605469 194.636719 162.734375 194.75 162.871094 194.839844 C 163.648438 195.546875 164.546875 196.023438 165.539062 196.25 C 166.21875 196.421875 166.71875 196.332031 167.027344 195.984375 C 167.589844 195.34375 167.246094 194.0625 166.777344 192.800781 C 167.78125 193.339844 168.945312 193.839844 169.695312 193.347656 C 169.886719 193.214844 170.011719 193.023438 170.050781 192.792969 C 170.183594 192.074219 169.480469 191.078125 168.96875 190.351562 C 168.832031 190.15625 168.710938 189.984375 168.648438 189.878906 C 168.414062 189.445312 168.160156 189.019531 167.894531 188.601562 C 168.3125 188.753906 168.792969 188.976562 169.292969 189.210938 C 170.996094 190.003906 173.117188 190.988281 174.601562 189.984375 C 174.71875 189.902344 174.773438 189.757812 174.738281 189.621094 C 174.488281 188.6875 173.71875 187.46875 173.140625 186.714844 C 172.859375 186.335938 172.46875 185.933594 172.046875 185.578125 C 172.464844 185.578125 172.878906 185.574219 173.3125 185.542969 C 174.375 185.453125 175.84375 185.265625 176.347656 184.65625 C 176.4375 184.550781 176.496094 184.433594 176.527344 184.3125 C 176.570312 184.257812 176.59375 184.1875 176.59375 184.109375 C 176.59375 184.039062 176.570312 183.976562 176.53125 183.921875 C 176.394531 183.339844 175.667969 182.832031 175.074219 182.417969 C 174.910156 182.300781 174.753906 182.191406 174.648438 182.109375 C 174.640625 182.101562 174.632812 182.09375 174.625 182.089844 C 173.707031 181.464844 172.691406 180.867188 171.703125 180.285156 L 171.554688 180.195312 C 170.273438 179.40625 168.941406 178.617188 167.769531 178.023438 C 167.953125 178.019531 168.136719 178.015625 168.316406 178.015625 C 168.9375 178.011719 169.578125 178.011719 170.25 177.832031 C 172.246094 177.398438 174.058594 176.878906 175.628906 176.285156 C 175.769531 176.230469 175.992188 176.164062 176.253906 176.085938 C 177.351562 175.761719 178.214844 175.480469 178.480469 175.03125 C 178.492188 175.011719 178.503906 174.988281 178.511719 174.964844 C 178.746094 174.238281 177.550781 173.828125 176.394531 173.429688 C 176.136719 173.339844 175.910156 173.265625 175.765625 173.199219 C 173.894531 172.496094 171.597656 172.140625 169.449219 172.230469 C 169.179688 172.25 168.914062 172.273438 168.648438 172.296875 C 169.710938 171.773438 170.640625 171.175781 171.609375 170.546875 C 171.964844 170.320312 172.320312 170.085938 172.683594 169.859375 L 172.734375 169.832031 C 177.28125 167.105469 177.5625 165.96875 177.382812 165.367188 C 177.179688 164.53125 175.859375 164.757812 174.796875 164.945312 C 174.5625 164.984375 174.339844 165.023438 174.21875 165.03125 C 172.925781 164.949219 171.90625 165 170.921875 165.195312 C 169.984375 165.375 168.4375 165.742188 167.109375 166.390625 C 167.722656 165.433594 168.445312 164.394531 169.261719 163.8125 C 169.414062 163.703125 169.566406 163.597656 169.71875 163.492188 C 170.710938 162.792969 171.738281 162.070312 172.476562 161.007812 C 173.082031 160.164062 173.742188 159.027344 173.4375 158.359375 C 173.351562 158.167969 173.160156 157.9375 172.714844 157.890625 C 172.703125 157.890625 172.691406 157.890625 172.679688 157.890625 C 171.988281 157.890625 171.09375 158.417969 170.375 158.839844 C 170.1875 158.949219 170.015625 159.046875 169.855469 159.132812 C 169.265625 159.5 168.652344 159.824219 168.042969 160.128906 C 168.238281 159.882812 168.429688 159.628906 168.574219 159.386719 C 169.09375 158.730469 169.980469 157.464844 170.207031 156.222656 C 170.226562 156.035156 170.289062 155.457031 169.871094 155.214844 C 169.359375 154.914062 168.625 155.425781 168.039062 155.835938 L 167.855469 155.96875 C 166.421875 157.0625 164.804688 158.289062 163.214844 158.925781 C 163.507812 158.335938 163.664062 157.648438 163.695312 156.851562 C 163.722656 156.113281 163.949219 155.492188 164.191406 154.835938 C 164.390625 154.289062 164.601562 153.71875 164.683594 153.078125 C 164.742188 152.589844 164.761719 152.007812 164.363281 151.8125 C 163.945312 151.613281 163.460938 152.019531 162.996094 152.484375 C 162.511719 152.976562 161.964844 153.429688 161.441406 153.867188 C 160.832031 154.375 160.210938 154.890625 159.667969 155.476562 C 159.800781 155.066406 159.929688 154.652344 160.027344 154.222656 C 160.03125 154.214844 160.03125 154.203125 160.03125 154.195312 C 160.058594 154.035156 160.085938 153.863281 160.117188 153.683594 C 160.265625 152.792969 160.433594 151.785156 160.222656 150.996094 C 160.21875 150.984375 160.21875 150.972656 160.214844 150.964844 C 159.886719 150.097656 159.613281 149.574219 159.230469 149.507812 C 159.199219 149.496094 159.164062 149.496094 159.132812 149.496094 C 159.128906 149.496094 159.125 149.492188 159.125 149.496094 C 159.121094 149.496094 159.121094 149.496094 159.121094 149.496094 C 159.113281 149.496094 159.109375 149.496094 159.105469 149.496094 C 159.082031 149.496094 159.058594 149.503906 159.035156 149.511719 C 158.722656 149.585938 158.453125 149.96875 158.117188 150.492188 C 158.058594 150.585938 157.984375 150.699219 157.960938 150.726562 C 157.9375 150.75 157.917969 150.78125 157.902344 150.8125 C 157.714844 151.230469 157.566406 151.628906 157.421875 152.011719 C 157.203125 152.59375 157 153.148438 156.683594 153.660156 C 156.390625 154.152344 156.0625 154.640625 155.746094 155.113281 C 155.421875 155.59375 155.089844 156.09375 154.792969 156.589844 L 154.535156 156.992188 C 154.304688 157.339844 154.085938 157.683594 153.875 158.019531 C 153.828125 156.75 153.59375 155.359375 153.363281 154.394531 C 153.207031 153.441406 152.773438 152.300781 152.273438 151.5 C 152.257812 151.476562 150.96875 149.195312 149.84375 149.328125 C 148.605469 149.417969 148.484375 151.808594 148.449219 152.636719 C 148.355469 153.074219 148.28125 153.523438 148.207031 153.957031 C 148.085938 154.675781 147.960938 155.417969 147.761719 156.136719 C 147.492188 157.152344 147.300781 158.734375 147.417969 160.164062 C 147.273438 159.953125 147.125 159.746094 146.976562 159.554688 C 146.171875 158.363281 145.484375 157.109375 144.808594 155.597656 C 144.703125 155.375 144.582031 155.011719 144.445312 154.59375 C 143.941406 153.082031 143.316406 151.203125 142.066406 151.394531 C 141.914062 151.417969 141.792969 151.546875 141.785156 151.703125 C 141.691406 153.304688 141.84375 154.746094 142.007812 156.269531 L 142.070312 156.859375 C 142.164062 157.78125 142.171875 158.699219 142.179688 159.585938 C 142.179688 159.671875 142.183594 159.753906 142.183594 159.839844 C 141.398438 159.335938 140.570312 158.871094 139.765625 158.425781 L 139.429688 158.238281 C 139.421875 158.234375 139.414062 158.230469 139.40625 158.226562 C 139.25 158.15625 139.019531 158.027344 138.753906 157.878906 C 137.65625 157.261719 136.152344 156.410156 135.246094 157.003906 C 135.054688 157.136719 134.929688 157.328125 134.886719 157.558594 C 134.84375 157.804688 134.894531 158.082031 135.003906 158.371094 C 135.214844 158.925781 135.632812 159.523438 135.972656 160.003906 C 136.109375 160.199219 136.230469 160.371094 136.289062 160.476562 C 136.414062 160.703125 136.542969 160.925781 136.675781 161.148438 C 135.617188 160.734375 134.0625 160.429688 133.050781 160.660156 C 132.332031 160.824219 132.070312 161.214844 131.980469 161.507812 C 131.917969 161.707031 131.945312 161.933594 132.046875 162.195312 C 132.183594 162.558594 132.453125 162.980469 132.78125 163.476562 C 132.960938 163.746094 133.148438 164.027344 133.199219 164.164062 C 133.207031 164.191406 133.222656 164.214844 133.238281 164.234375 C 133.355469 164.40625 133.445312 164.589844 133.523438 164.785156 C 132.890625 164.769531 132.277344 164.761719 131.628906 164.808594 C 130.566406 164.898438 129.097656 165.089844 128.59375 165.699219 C 128.429688 165.886719 128.363281 166.109375 128.390625 166.34375 C 128.402344 166.414062 128.417969 166.484375 128.445312 166.550781 C 128.644531 167.082031 129.316406 167.550781 129.867188 167.933594 C 130.03125 168.050781 130.1875 168.160156 130.289062 168.242188 C 130.296875 168.25 130.308594 168.257812 130.316406 168.261719 C 131.234375 168.886719 132.253906 169.488281 133.234375 170.066406 C 134.65625 170.9375 135.945312 171.703125 137.316406 172.324219 C 137.308594 172.324219 137.300781 172.324219 137.292969 172.324219 C 137.066406 172.335938 136.84375 172.335938 136.625 172.335938 C 136.003906 172.339844 135.363281 172.34375 134.691406 172.523438 C 132.695312 172.953125 130.882812 173.472656 129.3125 174.070312 C 129.171875 174.121094 128.945312 174.1875 128.6875 174.265625 C 127.589844 174.589844 126.726562 174.875 126.460938 175.320312 C 126.449219 175.339844 126.4375 175.363281 126.429688 175.386719 C 126.386719 175.519531 126.390625 175.640625 126.433594 175.753906 C 126.628906 176.261719 127.601562 176.597656 128.546875 176.921875 C 128.804688 177.011719 129.03125 177.089844 129.175781 177.152344 C 131.046875 177.855469 133.34375 178.210938 135.492188 178.121094 C 135.726562 178.105469 136.007812 178.082031 136.300781 178.050781 C 135.234375 178.574219 134.304688 179.175781 133.328125 179.804688 C 132.976562 180.035156 132.621094 180.265625 132.257812 180.492188 L 132.207031 180.519531 C 127.660156 183.246094 127.378906 184.382812 127.5625 185 C 127.570312 185.019531 127.578125 185.039062 127.585938 185.058594 C 128.023438 186.222656 130.734375 185.847656 133.425781 185.28125 C 128.390625 188.617188 121.167969 190.570312 111.429688 191.234375 C 108.828125 191.417969 106.328125 191.695312 103.921875 192.058594 C 103.875 192.058594 103.828125 192.0625 103.785156 192.078125 C 102.90625 192.214844 102.035156 192.355469 101.179688 192.515625 C 101.921875 192.117188 102.574219 191.707031 103.039062 191.347656 C 103.378906 191.089844 103.699219 190.828125 104.007812 190.574219 C 104.398438 190.257812 104.769531 189.953125 105.148438 189.679688 C 105.164062 189.667969 105.179688 189.65625 105.195312 189.644531 C 105.804688 189.210938 106.433594 188.863281 107.203125 188.65625 C 107.800781 188.484375 108.308594 188.46875 108.757812 188.457031 C 109.953125 188.421875 110.71875 188.300781 111.386719 186.378906 C 112.746094 182.40625 112.210938 178.359375 109.898438 175.261719 C 108.855469 174.050781 107.628906 173.234375 106.441406 172.445312 C 106.054688 172.1875 105.65625 171.921875 105.253906 171.636719 C 104.734375 171.304688 104.207031 170.847656 103.652344 170.367188 C 102.628906 169.480469 101.570312 168.558594 100.273438 168.164062 C 100.160156 168.128906 100.035156 168.15625 99.949219 168.238281 C 99.859375 168.316406 99.824219 168.4375 99.851562 168.554688 C 100.328125 170.644531 101.679688 172.296875 102.984375 173.894531 C 104.121094 175.28125 105.296875 176.71875 105.851562 178.421875 C 106.203125 179.355469 106.25 180.402344 106.289062 181.507812 C 106.125 182.34375 105.5625 182.671875 104.972656 183.015625 C 104.257812 183.433594 103.449219 183.902344 103.890625 185.277344 C 104.070312 185.832031 104.441406 186.207031 104.769531 186.535156 C 105.253906 187.027344 105.613281 187.394531 105.277344 188.226562 C 104.808594 188.691406 104.378906 189.179688 104.035156 189.699219 C 103.886719 189.820312 103.734375 189.941406 103.585938 190.066406 C 103.28125 190.3125 102.96875 190.570312 102.636719 190.824219 C 101.28125 191.855469 98.316406 193.402344 96.257812 193.429688 C 96.105469 193.429688 95.980469 193.535156 95.941406 193.671875 C 92.890625 194.464844 90.03125 195.429688 87.386719 196.566406 C 88.066406 194.976562 89.925781 193.714844 91.734375 192.492188 C 92.996094 191.636719 94.304688 190.75 95.183594 189.753906 C 96.480469 188.230469 97.058594 185.203125 96.761719 183.417969 C 96.335938 181.492188 95 180.671875 93.710938 179.875 C 93.398438 179.679688 93.078125 179.484375 92.769531 179.269531 C 94.316406 177.917969 94.28125 175.339844 93.5625 173.433594 C 93.101562 172.21875 92.386719 171.402344 91.425781 171.007812 C 90.164062 170.484375 88.527344 170.683594 86.449219 171.613281 C 85.898438 171.820312 85.375 172.171875 84.871094 172.511719 C 84.277344 172.914062 83.664062 173.328125 83.046875 173.472656 C 82.394531 173.542969 81.757812 173.351562 81.082031 173.148438 C 80.363281 172.933594 79.625 172.707031 78.828125 172.800781 C 78.820312 172.804688 78.808594 172.804688 78.796875 172.808594 C 76.546875 173.285156 73.109375 174.933594 71.285156 176.414062 C 71.105469 176.429688 70.972656 176.582031 70.984375 176.761719 C 70.988281 176.796875 70.992188 176.828125 71.003906 176.859375 C 71.054688 176.992188 71.1875 177.082031 71.335938 177.070312 C 71.390625 177.070312 71.449219 177.066406 71.507812 177.066406 C 71.960938 177.300781 72.457031 177.5 72.945312 177.6875 C 73.753906 178.003906 74.59375 178.332031 75.214844 178.84375 C 75.230469 178.855469 75.246094 178.867188 75.265625 178.875 C 76.613281 179.636719 77.554688 180.378906 78.429688 181.371094 C 78.632812 181.582031 78.828125 181.816406 79.035156 182.066406 C 79.726562 182.902344 80.507812 183.847656 81.8125 183.859375 C 82.332031 183.960938 82.769531 183.707031 83.195312 183.457031 C 83.367188 183.355469 83.542969 183.253906 83.71875 183.175781 C 84.375 183.25 84.5625 183.34375 85.292969 183.917969 C 85.308594 183.933594 85.328125 183.945312 85.347656 183.953125 C 85.507812 184.039062 85.683594 184.128906 85.867188 184.230469 C 87.890625 185.308594 91.269531 187.113281 93.589844 185.867188 C 94.144531 185.566406 94.496094 185.128906 94.636719 184.566406 C 94.949219 183.320312 94.128906 181.691406 93.355469 180.4375 C 93.355469 180.4375 93.359375 180.4375 93.359375 180.4375 C 94.585938 181.195312 95.746094 181.910156 96.109375 183.546875 C 96.378906 185.164062 95.820312 187.980469 94.683594 189.320312 C 93.859375 190.25 92.648438 191.070312 91.359375 191.941406 C 89.253906 193.367188 87.082031 194.84375 86.566406 196.929688 C 85.316406 197.492188 84.105469 198.089844 82.953125 198.730469 C 79.53125 200.472656 76.40625 202.742188 72.828125 206.082031 C 71.777344 207 70.75 208.222656 69.664062 209.511719 C 67.597656 211.96875 65.460938 214.507812 62.890625 215.320312 C 62.71875 215.375 62.621094 215.5625 62.675781 215.738281 C 62.675781 215.742188 62.679688 215.75 62.679688 215.753906 C 62.742188 215.917969 62.921875 216.007812 63.089844 215.953125 C 65.84375 215.082031 68.046875 212.46875 70.171875 209.9375 C 71.242188 208.667969 72.253906 207.464844 73.273438 206.570312 C 75.886719 204.136719 78.246094 202.28125 80.664062 200.78125 C 83.171875 199.375 86.421875 199.371094 88.074219 200.777344 C 89.582031 202.300781 90.105469 204.179688 90.550781 206.179688 C 90.320312 205.925781 90.070312 205.710938 89.800781 205.535156 C 88.957031 204.976562 87.953125 204.816406 86.816406 205.050781 C 86.113281 205.199219 85.597656 205.53125 85.285156 206.042969 C 84.574219 207.21875 85.09375 209.019531 85.550781 210.605469 C 85.753906 211.316406 85.949219 211.988281 85.964844 212.433594 C 86.039062 213.640625 85.355469 214.085938 84.488281 214.652344 C 83.742188 215.140625 82.898438 215.695312 82.601562 216.84375 C 82.398438 217.726562 82.339844 218.511719 82.28125 219.273438 C 82.183594 220.570312 82.09375 221.714844 81.257812 222.894531 C 81.144531 222.757812 80.945312 222.734375 80.804688 222.839844 C 80.679688 222.929688 80.640625 223.085938 80.691406 223.222656 C 80.699219 223.25 80.714844 223.277344 80.734375 223.304688 C 80.765625 223.347656 80.800781 223.382812 80.832031 223.417969 C 80.816406 223.4375 80.800781 223.457031 80.78125 223.476562 C 80.71875 223.546875 80.6875 223.636719 80.691406 223.726562 C 80.695312 223.761719 80.703125 223.789062 80.714844 223.820312 C 80.734375 223.875 80.769531 223.925781 80.816406 223.960938 C 81.507812 224.503906 82.664062 224.226562 83.683594 223.980469 C 84.183594 223.859375 84.652344 223.746094 84.992188 223.753906 C 85.386719 223.734375 85.832031 223.808594 86.304688 223.882812 C 87.183594 224.019531 88.175781 224.175781 89.164062 223.808594 C 90.285156 223.515625 90.679688 222.757812 91.058594 222.027344 C 91.296875 221.566406 91.542969 221.089844 91.996094 220.695312 C 92.339844 220.378906 92.878906 220.128906 93.449219 219.863281 C 94.039062 219.589844 94.648438 219.304688 95.140625 218.914062 C 97.25 217.554688 99.917969 215.351562 98.855469 211.945312 C 98.636719 211.125 97.800781 210.363281 96.558594 209.855469 C 95.265625 209.324219 93.46875 209.074219 92.148438 209.605469 C 92.007812 208.980469 91.828125 208.417969 91.617188 207.914062 C 91.523438 207.511719 91.4375 207.109375 91.351562 206.710938 C 90.863281 204.460938 90.355469 202.132812 88.539062 200.300781 C 88.53125 200.292969 88.527344 200.289062 88.519531 200.28125 C 87.339844 199.269531 85.511719 198.882812 83.628906 199.121094 C 89.273438 196.058594 96.085938 193.917969 103.945312 192.726562 L 104.898438 192.816406 C 110.824219 193.359375 115.941406 193.832031 117.808594 196.652344 C 117.855469 196.71875 117.917969 196.761719 117.992188 196.785156 C 118.152344 197.609375 118.414062 198.453125 118.730469 199.289062 C 119.238281 200.632812 119.886719 201.96875 120.492188 203.214844 C 120.828125 203.90625 121.144531 204.554688 121.425781 205.179688 C 122.171875 206.683594 123.273438 208.195312 124.609375 209.546875 C 124.929688 209.941406 125.234375 210.390625 125.558594 210.867188 C 126.296875 211.957031 127.0625 213.085938 128.148438 213.773438 C 128.234375 213.832031 128.34375 213.839844 128.441406 213.804688 L 128.609375 213.742188 C 128.746094 213.6875 128.835938 213.550781 128.824219 213.402344 Z M 137.289062 183.773438 C 137.320312 183.753906 137.347656 183.726562 137.367188 183.699219 C 138.152344 182.972656 139.03125 182.285156 140.007812 181.6875 C 140.890625 181.144531 141.78125 181.03125 142.5625 180.929688 C 142.933594 180.882812 143.289062 180.835938 143.605469 180.75 C 143.667969 180.871094 143.730469 180.992188 143.796875 181.113281 C 142.921875 181.875 142.003906 182.367188 141.035156 182.882812 C 140.050781 183.410156 139.03125 183.957031 138.070312 184.8125 C 136.945312 185.910156 135.964844 187.167969 135.019531 188.386719 C 134.1875 189.457031 133.332031 190.554688 132.386719 191.535156 C 132.527344 190.355469 134.117188 186.742188 137.289062 183.773438 Z M 143.597656 179.078125 C 143.5 178.820312 143.40625 178.554688 143.324219 178.289062 C 142.050781 174.121094 143.570312 168.574219 147.863281 166.949219 C 149.957031 166.160156 153.039062 165.394531 155.851562 166.230469 C 157.0625 166.589844 157.867188 167.28125 158.800781 168.148438 L 159.183594 168.507812 C 160.234375 169.484375 161.027344 170.675781 161.542969 172.042969 C 162.195312 173.769531 162.394531 175.777344 162.117188 177.851562 C 162.117188 177.855469 162.117188 177.859375 162.117188 177.859375 C 161.917969 179.46875 161.0625 180.515625 160.15625 181.628906 C 159.878906 181.96875 159.589844 182.320312 159.3125 182.699219 C 158.914062 183.277344 158.527344 183.75 158.125 184.144531 C 157.007812 185.242188 155.777344 185.703125 153.847656 185.859375 C 149.027344 186.222656 145.386719 183.8125 143.597656 179.078125 Z M 170.183594 159.707031 C 170.332031 159.628906 170.511719 159.523438 170.710938 159.410156 C 171.152344 159.148438 171.714844 158.820312 172.183594 158.65625 C 171.429688 160.210938 169.695312 161.199219 168.011719 162.15625 C 167.421875 162.492188 166.863281 162.808594 166.359375 163.144531 C 166.351562 163.148438 166.339844 163.15625 166.332031 163.164062 C 165.550781 163.800781 164.882812 164.59375 164.242188 165.359375 C 163.785156 165.902344 163.316406 166.460938 162.796875 166.976562 C 162.652344 167.128906 162.402344 167.320312 162.132812 167.519531 C 161.558594 167.953125 160.867188 168.472656 160.632812 169.105469 C 160.527344 168.972656 160.417969 168.839844 160.304688 168.714844 C 160.152344 167.597656 160.363281 167.148438 160.96875 166.226562 C 162.125 164.703125 163.675781 163.332031 165.460938 162.261719 C 166.195312 161.792969 166.976562 161.402344 167.800781 160.992188 C 168.597656 160.597656 169.417969 160.1875 170.183594 159.707031 Z M 134.753906 190.644531 C 134.605469 190.722656 134.425781 190.828125 134.230469 190.941406 C 133.984375 191.085938 133.699219 191.25 133.417969 191.398438 C 134.167969 190.558594 134.867188 189.664062 135.542969 188.792969 C 136.476562 187.59375 137.441406 186.351562 138.523438 185.296875 C 139.414062 184.503906 140.355469 184 141.347656 183.46875 C 142.273438 182.972656 143.230469 182.457031 144.132812 181.695312 C 144.226562 181.84375 144.320312 181.988281 144.414062 182.132812 C 144.28125 182.457031 144.222656 182.855469 144.167969 183.242188 C 144.117188 183.585938 144.0625 183.980469 143.96875 184.125 C 142.816406 185.648438 141.265625 187.019531 139.480469 188.089844 C 138.742188 188.558594 137.964844 188.949219 137.136719 189.359375 C 136.34375 189.753906 135.523438 190.164062 134.753906 190.644531 Z M 141.625 190.75 C 139.910156 191.398438 138.195312 192.703125 136.683594 193.859375 L 136.523438 193.972656 C 136.292969 194.132812 135.597656 194.621094 135.417969 194.578125 C 135.417969 194.574219 135.363281 194.5 135.390625 194.21875 C 135.589844 193.136719 136.421875 191.960938 136.898438 191.355469 C 136.910156 191.34375 136.917969 191.332031 136.925781 191.320312 C 137.0625 191.089844 137.273438 190.820312 137.472656 190.558594 C 137.6875 190.28125 137.910156 189.996094 138.070312 189.730469 C 138.089844 189.691406 138.101562 189.652344 138.109375 189.613281 C 138.695312 189.316406 139.28125 189.003906 139.828125 188.652344 C 141.679688 187.542969 143.292969 186.113281 144.511719 184.503906 C 144.699219 184.222656 144.761719 183.789062 144.828125 183.332031 C 144.851562 183.15625 144.878906 182.976562 144.910156 182.808594 C 145.457031 183.5 146.066406 184.097656 146.734375 184.601562 C 146.5625 185.109375 146.34375 185.625 146.054688 186.171875 C 146.050781 186.179688 146.046875 186.1875 146.042969 186.199219 C 145.484375 187.53125 144.472656 188.808594 143.300781 189.734375 C 143.09375 189.859375 142.902344 190 142.722656 190.148438 C 142.363281 190.386719 141.996094 190.589844 141.625 190.75 Z M 141.46875 197.402344 C 141.167969 197.707031 140.992188 197.835938 140.898438 197.886719 C 140.886719 197.800781 140.882812 197.636719 140.917969 197.355469 C 140.992188 196.789062 141.175781 196.277344 141.375 195.742188 C 141.621094 195.066406 141.878906 194.367188 141.910156 193.523438 C 141.957031 192.273438 142.34375 191.355469 143.113281 190.6875 C 144.628906 189.6875 145.949219 188.140625 146.648438 186.464844 C 146.917969 185.960938 147.128906 185.476562 147.300781 185 C 147.738281 185.28125 148.199219 185.527344 148.679688 185.734375 C 147.574219 186.566406 146.75 187.652344 146.464844 188.679688 C 146.460938 188.6875 146.460938 188.699219 146.457031 188.710938 C 146.363281 189.269531 146.324219 189.824219 146.289062 190.363281 C 146.242188 191.035156 146.191406 191.726562 146.035156 192.410156 C 145.519531 193.945312 144.332031 194.933594 143.074219 195.976562 C 142.539062 196.425781 141.980469 196.886719 141.46875 197.402344 Z M 149.582031 193.417969 C 149.289062 193.90625 148.960938 194.394531 148.644531 194.871094 C 148.320312 195.351562 147.988281 195.847656 147.6875 196.347656 C 147.34375 196.914062 147.125 197.496094 146.894531 198.109375 C 146.761719 198.472656 146.621094 198.84375 146.449219 199.226562 C 146.402344 199.285156 146.347656 199.371094 146.265625 199.503906 C 146.171875 199.648438 145.953125 199.988281 145.8125 200.140625 C 145.726562 200.03125 145.582031 199.773438 145.355469 199.171875 C 145.1875 198.519531 145.351562 197.554688 145.480469 196.777344 C 145.511719 196.597656 145.539062 196.425781 145.5625 196.265625 C 145.707031 195.652344 145.914062 195.042969 146.109375 194.457031 C 146.316406 193.851562 146.527344 193.222656 146.679688 192.574219 C 146.851562 191.832031 146.902344 191.109375 146.949219 190.40625 C 146.988281 189.867188 147.023438 189.355469 147.109375 188.835938 C 147.390625 187.847656 148.269531 186.78125 149.425781 186.019531 C 150.234375 186.289062 151.097656 186.460938 152.011719 186.527344 C 152.582031 188.167969 152.332031 189.253906 151.679688 190.371094 C 151.625 190.414062 151.589844 190.480469 151.574219 190.554688 C 151.308594 190.980469 150.988281 191.417969 150.640625 191.898438 C 150.296875 192.371094 149.941406 192.855469 149.582031 193.417969 Z M 153.242188 198.515625 C 152.773438 197.765625 152.378906 196.71875 152.230469 195.824219 C 151.90625 194.484375 152.070312 192.136719 152.210938 190.777344 C 152.921875 189.582031 153.277344 188.34375 152.722656 186.554688 C 152.921875 186.558594 153.121094 186.558594 153.324219 186.550781 C 154.003906 187.992188 153.757812 189.710938 153.519531 191.371094 C 153.460938 191.804688 153.402344 192.210938 153.359375 192.613281 C 153.097656 195.113281 153.269531 197.125 153.898438 198.785156 C 154.082031 199.269531 154.304688 199.726562 154.570312 200.160156 C 154.113281 199.808594 153.550781 199.074219 153.242188 198.515625 Z M 156.105469 196.1875 C 156.011719 196.707031 155.921875 197.203125 155.835938 197.605469 C 155.832031 197.625 155.832031 197.640625 155.828125 197.660156 C 155.761719 199.160156 155.539062 199.824219 155.339844 200.125 C 154.101562 198.3125 153.679688 195.945312 154.019531 192.679688 C 154.0625 192.289062 154.117188 191.890625 154.179688 191.464844 C 154.40625 189.871094 154.664062 188.074219 154.03125 186.507812 C 154.234375 186.488281 154.433594 186.464844 154.625 186.441406 C 154.679688 187.324219 154.898438 189.828125 155.429688 191.242188 C 155.460938 191.320312 155.492188 191.394531 155.523438 191.464844 C 155.867188 192.234375 156.238281 192.929688 156.640625 193.558594 C 156.441406 194.320312 156.261719 195.308594 156.105469 196.1875 Z M 162.066406 196.65625 C 162.054688 197.105469 161.890625 197.996094 161.707031 198.441406 C 161.023438 197.898438 160.496094 197.230469 159.941406 196.523438 C 159.523438 195.996094 159.089844 195.449219 158.59375 194.96875 C 157.632812 193.988281 156.828125 192.753906 156.128906 191.195312 C 155.578125 189.945312 155.324219 187.132812 155.285156 186.332031 C 155.769531 186.234375 156.214844 186.101562 156.628906 185.933594 C 157.046875 186.523438 157.535156 187.097656 158.019531 187.65625 C 158.6875 188.433594 159.382812 189.234375 159.84375 190.066406 C 160.820312 191.703125 161.441406 193.105469 161.753906 194.355469 L 161.804688 194.5625 C 161.964844 195.214844 162.164062 196.027344 162.070312 196.613281 C 162.066406 196.628906 162.066406 196.640625 162.066406 196.65625 Z M 166.527344 195.546875 C 166.367188 195.726562 165.992188 195.679688 165.695312 195.605469 C 164.804688 195.402344 163.996094 194.972656 163.300781 194.332031 C 163.285156 194.316406 163.269531 194.304688 163.253906 194.292969 C 163.105469 194.203125 162.941406 194.042969 162.78125 193.890625 C 162.574219 193.691406 162.375 193.503906 162.160156 193.386719 C 161.796875 192.285156 161.222656 191.082031 160.421875 189.734375 C 159.929688 188.855469 159.214844 188.023438 158.523438 187.222656 C 158.078125 186.707031 157.621094 186.175781 157.234375 185.640625 C 157.585938 185.445312 157.914062 185.214844 158.230469 184.945312 C 158.441406 185.441406 158.640625 185.894531 158.839844 186.3125 C 160.007812 189.0625 162.625 190.511719 165.152344 191.914062 L 165.507812 192.113281 C 165.515625 192.117188 165.527344 192.121094 165.535156 192.125 C 165.625 192.164062 165.738281 192.226562 165.871094 192.296875 C 165.894531 192.359375 165.921875 192.425781 165.949219 192.5 C 166.222656 193.199219 166.957031 195.058594 166.527344 195.546875 Z M 166.515625 191.894531 C 166.242188 191.742188 166.003906 191.609375 165.824219 191.527344 L 165.476562 191.335938 C 163.046875 189.988281 160.53125 188.59375 159.445312 186.039062 C 159.21875 185.558594 158.988281 185.035156 158.75 184.457031 C 158.941406 184.253906 159.132812 184.039062 159.320312 183.800781 C 160.199219 184.480469 160.699219 185.382812 161.226562 186.335938 C 161.609375 187.035156 162.007812 187.753906 162.578125 188.457031 C 163.507812 189.59375 164.820312 190.21875 166.089844 190.824219 C 167.289062 191.394531 168.421875 191.941406 169.144531 192.867188 C 168.5 193.011719 167.226562 192.300781 166.515625 191.894531 Z M 168.070312 190.203125 C 168.148438 190.34375 168.277344 190.523438 168.425781 190.734375 C 168.640625 191.042969 168.96875 191.503906 169.183594 191.925781 C 168.394531 191.1875 167.371094 190.699219 166.375 190.226562 C 165.175781 189.652344 163.929688 189.058594 163.097656 188.035156 C 162.5625 187.382812 162.179688 186.6875 161.808594 186.015625 C 161.246094 184.992188 160.710938 184.027344 159.722656 183.265625 C 159.765625 183.203125 159.8125 183.144531 159.855469 183.082031 C 159.933594 182.976562 160.015625 182.875 160.09375 182.769531 C 160.6875 182.867188 162.558594 183.238281 163.332031 184.101562 C 165.484375 186.246094 166.941406 188.128906 168.070312 190.203125 Z M 172.609375 187.113281 C 173.140625 187.804688 173.75 188.792969 174.019531 189.554688 C 172.84375 190.128906 171.113281 189.324219 169.578125 188.609375 C 168.804688 188.25 168.078125 187.910156 167.484375 187.785156 C 167.4375 187.773438 167.394531 187.773438 167.351562 187.78125 C 166.40625 186.425781 165.265625 185.089844 163.816406 183.644531 C 163.03125 182.773438 161.421875 182.351562 160.5625 182.179688 C 160.597656 182.136719 160.632812 182.089844 160.671875 182.046875 C 161.082031 181.542969 161.496094 181.03125 161.855469 180.464844 C 162.101562 180.789062 162.324219 181.160156 162.535156 181.519531 C 162.855469 182.058594 163.1875 182.613281 163.621094 183.042969 C 165.4375 184.660156 168.132812 185.640625 170.46875 185.542969 C 170.664062 185.546875 170.855469 185.554688 171.042969 185.558594 C 171.0625 185.625 171.101562 185.6875 171.160156 185.730469 C 171.707031 186.121094 172.261719 186.648438 172.609375 187.113281 Z M 173.261719 184.882812 C 172.546875 184.933594 171.859375 184.914062 171.132812 184.898438 C 170.917969 184.890625 170.703125 184.886719 170.460938 184.882812 C 168.269531 184.972656 165.761719 184.054688 164.078125 182.5625 C 163.714844 182.199219 163.421875 181.707031 163.109375 181.179688 C 162.835938 180.722656 162.550781 180.25 162.203125 179.839844 C 162.316406 179.609375 162.417969 179.371094 162.503906 179.117188 C 162.839844 179.242188 163.210938 179.320312 163.570312 179.390625 C 163.972656 179.46875 164.351562 179.546875 164.660156 179.683594 C 165.609375 180.109375 166.15625 180.789062 166.738281 181.507812 C 167.207031 182.09375 167.695312 182.695312 168.40625 183.144531 C 170.710938 184.566406 173.128906 184.523438 175.46875 184.46875 C 175.117188 184.617188 174.460938 184.78125 173.261719 184.882812 Z M 171.207031 180.757812 L 171.367188 180.855469 C 172.335938 181.429688 173.339844 182.019531 174.238281 182.628906 C 174.359375 182.726562 174.515625 182.835938 174.691406 182.960938 C 175.007812 183.179688 175.476562 183.507812 175.722656 183.796875 C 175.667969 183.800781 175.613281 183.800781 175.5625 183.800781 C 173.175781 183.859375 170.925781 183.917969 168.757812 182.582031 C 168.144531 182.195312 167.710938 181.660156 167.253906 181.09375 C 166.652344 180.34375 166.027344 179.570312 164.933594 179.078125 C 164.558594 178.910156 164.121094 178.824219 163.699219 178.738281 C 163.328125 178.667969 162.980469 178.59375 162.683594 178.472656 C 162.699219 178.394531 162.71875 178.3125 162.730469 178.230469 C 163.003906 178.191406 163.253906 178.109375 163.515625 178.023438 C 163.894531 177.898438 164.320312 177.757812 164.925781 177.707031 C 165.097656 177.695312 165.328125 177.734375 165.597656 177.8125 C 165.605469 177.816406 165.613281 177.820312 165.621094 177.824219 C 165.625 177.824219 165.632812 177.824219 165.640625 177.824219 C 167.191406 178.296875 170.023438 180.035156 171.207031 180.757812 Z M 169.484375 172.890625 C 171.535156 172.808594 173.738281 173.144531 175.507812 173.8125 C 175.664062 173.882812 175.902344 173.960938 176.175781 174.058594 C 176.613281 174.207031 177.582031 174.539062 177.832031 174.777344 C 177.519531 175.023438 176.519531 175.316406 176.066406 175.453125 C 175.792969 175.53125 175.558594 175.601562 175.394531 175.664062 C 173.851562 176.246094 172.074219 176.757812 170.09375 177.1875 C 169.492188 177.347656 168.921875 177.351562 168.316406 177.351562 C 168.085938 177.355469 167.855469 177.355469 167.621094 177.363281 C 167.179688 177.382812 166.105469 177.230469 165.730469 177.167969 C 165.730469 177.167969 165.730469 177.167969 165.726562 177.167969 C 165.390625 177.074219 165.101562 177.027344 164.871094 177.046875 C 164.1875 177.105469 163.703125 177.265625 163.308594 177.394531 C 163.128906 177.453125 162.972656 177.5 162.816406 177.539062 C 162.859375 177.160156 162.886719 176.785156 162.898438 176.410156 C 162.964844 176.429688 163.035156 176.433594 163.105469 176.40625 L 163.394531 176.296875 C 163.808594 176.257812 164.253906 176.222656 164.71875 176.183594 C 166.554688 176.035156 168.628906 175.867188 170.28125 175.394531 C 170.457031 175.34375 170.558594 175.160156 170.507812 174.984375 C 170.457031 174.808594 170.273438 174.707031 170.097656 174.757812 C 168.511719 175.210938 166.46875 175.378906 164.667969 175.523438 C 164.183594 175.5625 163.71875 175.601562 163.289062 175.644531 C 163.261719 175.644531 163.230469 175.652344 163.203125 175.664062 L 162.894531 175.777344 C 162.886719 175.273438 162.847656 174.78125 162.78125 174.292969 C 162.804688 174.289062 162.828125 174.289062 162.851562 174.277344 C 163.269531 174.082031 163.597656 173.953125 163.847656 173.882812 C 163.867188 173.875 163.886719 173.871094 163.902344 173.867188 C 164.820312 173.886719 165.730469 173.59375 166.582031 173.238281 C 167.5 173.082031 168.476562 172.964844 169.484375 172.890625 Z M 171.046875 165.847656 C 171.980469 165.660156 172.953125 165.613281 174.195312 165.691406 C 174.207031 165.695312 174.21875 165.695312 174.230469 165.695312 C 174.390625 165.6875 174.617188 165.648438 174.910156 165.597656 C 176.023438 165.402344 176.636719 165.378906 176.738281 165.542969 C 176.785156 165.699219 176.796875 166.621094 172.394531 169.261719 L 172.335938 169.296875 C 171.964844 169.527344 171.605469 169.761719 171.25 169.992188 C 170.097656 170.738281 169.007812 171.441406 167.691406 172.011719 L 167.316406 172.183594 C 167.015625 172.324219 166.707031 172.464844 166.398438 172.597656 C 165.449219 172.761719 164.570312 172.964844 163.808594 173.203125 C 163.457031 173.207031 163.085938 173.175781 162.691406 173.144531 L 162.628906 173.140625 C 162.609375 173.136719 162.589844 173.144531 162.570312 173.144531 C 162.460938 172.683594 162.328125 172.238281 162.167969 171.808594 C 162.03125 171.445312 161.875 171.097656 161.703125 170.761719 C 164.285156 170.730469 165.203125 169.574219 166.347656 167.613281 C 167.695312 166.597656 169.867188 166.070312 171.046875 165.847656 Z M 171.933594 160.625 C 171.257812 161.597656 170.324219 162.253906 169.335938 162.949219 C 169.183594 163.054688 169.027344 163.164062 168.875 163.273438 C 167.796875 164.042969 166.917969 165.441406 166.207031 166.566406 L 165.964844 166.953125 C 164.691406 169.171875 163.992188 170.171875 161.328125 170.09375 C 161.257812 169.980469 161.191406 169.871094 161.117188 169.761719 C 161.175781 169.703125 161.214844 169.621094 161.21875 169.53125 C 161.226562 169.027344 161.949219 168.484375 162.53125 168.050781 C 162.824219 167.828125 163.101562 167.621094 163.273438 167.433594 C 163.804688 166.910156 164.285156 166.339844 164.75 165.785156 C 165.398438 165.011719 166.011719 164.28125 166.742188 163.6875 C 167.222656 163.367188 167.765625 163.058594 168.339844 162.730469 C 170.066406 161.75 172.019531 160.640625 172.839844 158.835938 C 172.84375 158.824219 172.84375 158.8125 172.847656 158.800781 C 172.824219 159.128906 172.53125 159.789062 171.933594 160.625 Z M 163.316406 159.605469 C 165.03125 158.957031 166.746094 157.648438 168.257812 156.496094 L 168.417969 156.378906 C 168.648438 156.21875 169.34375 155.730469 169.523438 155.777344 C 169.523438 155.777344 169.578125 155.851562 169.550781 156.132812 C 169.351562 157.21875 168.519531 158.390625 168.039062 158.996094 C 168.03125 159.007812 168.023438 159.019531 168.015625 159.03125 C 167.878906 159.261719 167.667969 159.53125 167.464844 159.792969 C 167.25 160.070312 167.03125 160.355469 166.871094 160.621094 C 166.847656 160.660156 166.835938 160.699219 166.832031 160.738281 C 166.242188 161.035156 165.65625 161.347656 165.109375 161.699219 C 163.261719 162.808594 161.644531 164.238281 160.425781 165.847656 C 159.90625 166.636719 159.617188 167.175781 159.59375 167.980469 L 159.253906 167.664062 C 158.980469 167.410156 158.71875 167.171875 158.453125 166.949219 C 158.488281 166.640625 158.5 166.34375 158.515625 166.058594 C 158.546875 165.367188 158.574219 164.769531 158.886719 164.179688 C 158.890625 164.171875 158.894531 164.164062 158.898438 164.15625 C 159.457031 162.820312 160.46875 161.539062 161.644531 160.613281 C 161.847656 160.488281 162.035156 160.351562 162.210938 160.207031 C 162.570312 159.96875 162.941406 159.761719 163.316406 159.605469 Z M 163.46875 152.949219 C 163.769531 152.644531 163.949219 152.515625 164.042969 152.464844 C 164.054688 152.550781 164.058594 152.714844 164.019531 152.996094 C 163.949219 153.5625 163.761719 154.074219 163.566406 154.609375 C 163.316406 155.285156 163.0625 155.984375 163.03125 156.828125 C 162.984375 158.082031 162.59375 159 161.820312 159.671875 C 160.308594 160.671875 158.992188 162.21875 158.289062 163.886719 C 157.917969 164.601562 157.886719 165.292969 157.851562 166.027344 C 157.84375 166.171875 157.835938 166.316406 157.828125 166.464844 C 157.367188 166.144531 156.871094 165.878906 156.285156 165.675781 C 157.667969 164.589844 158.175781 162.765625 158.460938 161.722656 L 158.476562 161.671875 C 158.476562 161.664062 158.480469 161.652344 158.480469 161.640625 C 158.578125 161.085938 158.617188 160.527344 158.652344 159.988281 C 158.699219 159.316406 158.746094 158.625 158.90625 157.9375 C 159.421875 156.40625 160.609375 155.417969 161.863281 154.375 C 162.402344 153.925781 162.960938 153.464844 163.46875 152.949219 Z M 159.460938 153.574219 C 159.429688 153.753906 159.402344 153.925781 159.375 154.085938 C 159.234375 154.699219 159.027344 155.308594 158.828125 155.894531 C 158.625 156.5 158.410156 157.128906 158.261719 157.777344 C 158.089844 158.519531 158.039062 159.242188 157.988281 159.945312 C 157.953125 160.484375 157.917969 160.996094 157.828125 161.515625 L 157.820312 161.546875 C 157.503906 162.691406 156.980469 164.578125 155.445312 165.441406 C 155.386719 165.425781 155.324219 165.417969 155.265625 165.40625 C 155.269531 165.398438 155.273438 165.390625 155.273438 165.382812 C 155.304688 165.09375 155.328125 164.789062 155.351562 164.472656 C 155.421875 163.503906 155.5 162.410156 155.839844 161.445312 C 156.101562 160.535156 156.515625 159.78125 156.914062 159.050781 C 157.242188 158.445312 157.582031 157.824219 157.835938 157.121094 C 158.425781 155.59375 159.324219 152.96875 159.46875 150.886719 C 159.503906 150.976562 159.542969 151.070312 159.585938 151.179688 C 159.753906 151.832031 159.589844 152.796875 159.460938 153.574219 Z M 155.359375 156.933594 C 155.648438 156.445312 155.980469 155.953125 156.296875 155.480469 C 156.617188 155 156.953125 154.503906 157.25 154.003906 C 157.597656 153.4375 157.816406 152.855469 158.042969 152.242188 C 158.179688 151.878906 158.316406 151.507812 158.488281 151.125 C 158.535156 151.066406 158.589844 150.980469 158.675781 150.847656 C 158.710938 150.792969 158.761719 150.714844 158.816406 150.628906 C 158.726562 152.734375 157.699219 155.632812 157.214844 156.890625 C 156.972656 157.550781 156.660156 158.125 156.328125 158.734375 C 155.914062 159.496094 155.484375 160.285156 155.203125 161.242188 C 154.84375 162.277344 154.761719 163.417969 154.6875 164.425781 C 154.664062 164.726562 154.640625 165.019531 154.613281 165.296875 C 154.3125 165.257812 154.011719 165.230469 153.710938 165.214844 C 153.640625 164.808594 153.554688 164.394531 153.46875 163.992188 C 153.1875 162.652344 152.917969 161.390625 153.289062 160.503906 C 153.429688 160.164062 153.597656 159.816406 153.800781 159.445312 C 153.800781 159.445312 153.800781 159.445312 153.804688 159.445312 C 154.175781 158.761719 154.621094 158.078125 155.089844 157.347656 Z M 151.699219 151.835938 C 152.167969 152.585938 152.5625 153.632812 152.710938 154.527344 C 153.015625 155.796875 153.320312 157.769531 153.1875 159.191406 C 152.984375 159.558594 152.816406 159.90625 152.671875 160.253906 C 152.226562 161.328125 152.515625 162.691406 152.820312 164.128906 C 152.894531 164.488281 152.96875 164.851562 153.03125 165.207031 C 152.875 165.210938 152.71875 165.214844 152.5625 165.222656 C 151.019531 162.738281 149.984375 160.210938 150.035156 159.050781 C 150.113281 158.289062 150.335938 157.5 150.550781 156.734375 C 150.773438 155.941406 151.003906 155.121094 151.089844 154.304688 C 151.089844 154.296875 151.089844 154.285156 151.089844 154.273438 C 151.089844 153.476562 150.898438 152.710938 150.714844 151.96875 C 150.5625 151.363281 150.421875 150.785156 150.375 150.199219 C 150.828125 150.550781 151.390625 151.28125 151.699219 151.835938 Z M 148.527344 161.976562 C 147.796875 160.527344 148.023438 157.738281 148.402344 156.308594 C 148.609375 155.558594 148.738281 154.800781 148.863281 154.066406 C 148.941406 153.609375 149.011719 153.175781 149.105469 152.746094 C 149.105469 152.726562 149.109375 152.710938 149.109375 152.691406 C 149.191406 150.917969 149.488281 150.308594 149.699219 150.101562 C 149.738281 150.796875 149.90625 151.476562 150.070312 152.128906 C 150.25 152.859375 150.421875 153.546875 150.425781 154.257812 C 150.34375 155.011719 150.125 155.796875 149.910156 156.554688 C 149.6875 157.347656 149.457031 158.167969 149.371094 159.003906 C 149.34375 159.621094 149.546875 160.496094 149.933594 161.519531 C 150.359375 162.644531 151.007812 163.945312 151.820312 165.285156 C 150.9375 165.382812 150.089844 165.5625 149.308594 165.78125 C 149.296875 165.554688 149.308594 165.308594 149.324219 165.050781 C 149.363281 164.460938 149.402344 163.785156 149.117188 163.164062 C 148.9375 162.765625 148.738281 162.367188 148.527344 161.980469 C 148.527344 161.976562 148.527344 161.976562 148.527344 161.976562 Z M 142.730469 156.789062 L 142.667969 156.195312 C 142.519531 154.816406 142.382812 153.507812 142.433594 152.097656 C 143.011719 152.398438 143.503906 153.875 143.8125 154.804688 C 143.957031 155.246094 144.085938 155.625 144.203125 155.875 C 144.890625 157.414062 145.597656 158.699219 146.433594 159.941406 C 147.1875 160.917969 147.945312 162.195312 148.511719 163.4375 C 148.726562 163.914062 148.695312 164.472656 148.660156 165.015625 C 148.640625 165.332031 148.625 165.660156 148.65625 165.976562 C 148.441406 166.042969 148.234375 166.109375 148.035156 166.183594 C 148.109375 166.09375 148.136719 165.972656 148.09375 165.859375 C 147.785156 165.042969 147.292969 164.425781 146.816406 163.832031 C 146.390625 163.300781 145.988281 162.796875 145.765625 162.203125 C 145.613281 161.808594 145.503906 161.398438 145.390625 160.964844 C 145.273438 160.535156 145.15625 160.089844 144.992188 159.664062 C 144.929688 159.492188 144.738281 159.40625 144.566406 159.46875 C 144.394531 159.535156 144.308594 159.726562 144.371094 159.898438 C 144.523438 160.296875 144.632812 160.703125 144.746094 161.136719 C 144.863281 161.566406 144.980469 162.011719 145.144531 162.441406 C 145.402344 163.132812 145.855469 163.699219 146.296875 164.246094 C 146.742188 164.800781 147.199219 165.375 147.472656 166.09375 C 147.515625 166.207031 147.613281 166.277344 147.722656 166.296875 C 147.691406 166.308594 147.660156 166.320312 147.628906 166.332031 C 147.296875 166.457031 146.984375 166.605469 146.679688 166.769531 C 145.367188 166.015625 143.03125 163.347656 142.925781 161.933594 C 142.878906 161.394531 142.863281 160.859375 142.855469 160.453125 C 142.847656 160.160156 142.847656 159.871094 142.84375 159.578125 C 142.835938 158.675781 142.828125 157.742188 142.730469 156.789062 Z M 136.871094 160.148438 C 136.789062 160.011719 136.664062 159.828125 136.515625 159.621094 C 136.148438 159.097656 135.460938 158.121094 135.542969 157.675781 C 135.550781 157.617188 135.574219 157.582031 135.613281 157.550781 C 136.175781 157.1875 137.636719 158.011719 138.425781 158.457031 C 138.699219 158.609375 138.933594 158.742188 139.117188 158.824219 L 139.441406 159.003906 C 140.367188 159.519531 141.324219 160.050781 142.195312 160.640625 C 142.203125 161.03125 142.222656 161.507812 142.265625 161.988281 C 142.285156 162.238281 142.351562 162.507812 142.460938 162.796875 C 143.042969 164.339844 144.78125 166.292969 146.050781 167.160156 C 145.527344 167.519531 145.0625 167.945312 144.644531 168.414062 C 143.660156 167.96875 142.621094 167.378906 141.605469 166.25 C 139.457031 164.101562 137.996094 162.222656 136.871094 160.148438 Z M 133.804688 163.890625 C 133.71875 163.6875 133.539062 163.417969 133.335938 163.109375 C 133.101562 162.753906 132.550781 161.929688 132.617188 161.703125 C 132.671875 161.515625 132.871094 161.378906 133.199219 161.304688 C 134.464844 161.015625 136.816406 161.75 137.226562 162.195312 C 137.273438 162.242188 137.332031 162.269531 137.394531 162.285156 C 138.375 163.738281 139.574219 165.160156 141.121094 166.707031 C 142.15625 167.855469 143.210938 168.480469 144.214844 168.949219 C 143.984375 169.253906 143.777344 169.578125 143.589844 169.910156 C 143.3125 169.597656 143.019531 169.25 142.734375 168.910156 C 142.257812 168.339844 141.761719 167.75 141.316406 167.308594 C 139.503906 165.691406 136.808594 164.710938 134.472656 164.808594 C 134.394531 164.804688 134.320312 164.804688 134.246094 164.800781 C 134.128906 164.496094 134.003906 164.183594 133.804688 163.890625 Z M 133.578125 169.496094 C 132.605469 168.925781 131.601562 168.332031 130.703125 167.722656 C 130.582031 167.625 130.425781 167.515625 130.246094 167.390625 C 129.816406 167.089844 129.09375 166.589844 129.050781 166.257812 C 129.046875 166.226562 129.046875 166.1875 129.101562 166.121094 C 129.246094 165.949219 129.773438 165.628906 131.675781 165.46875 C 132.390625 165.417969 133.078125 165.4375 133.808594 165.457031 C 134.019531 165.460938 134.238281 165.464844 134.476562 165.46875 C 136.667969 165.382812 139.179688 166.296875 140.863281 167.792969 C 141.273438 168.199219 141.753906 168.777344 142.222656 169.332031 C 142.570312 169.75 142.929688 170.175781 143.261719 170.542969 C 143.148438 170.78125 143.046875 171.027344 142.953125 171.277344 C 142.773438 171.082031 142.601562 170.890625 142.433594 170.703125 C 141.21875 169.347656 140.167969 168.171875 137.984375 167.675781 C 137.558594 167.597656 137.15625 167.578125 136.765625 167.558594 C 136.191406 167.527344 135.648438 167.5 135.039062 167.304688 C 134.867188 167.25 134.679688 167.34375 134.621094 167.519531 C 134.597656 167.59375 134.601562 167.667969 134.625 167.738281 C 134.660156 167.828125 134.734375 167.902344 134.835938 167.933594 C 135.523438 168.15625 136.136719 168.1875 136.726562 168.21875 C 137.113281 168.238281 137.480469 168.257812 137.851562 168.324219 C 139.8125 168.773438 140.75 169.820312 141.9375 171.148438 C 142.183594 171.421875 142.4375 171.707031 142.710938 171.996094 C 142.628906 172.273438 142.554688 172.550781 142.492188 172.835938 C 141.417969 172.832031 140.597656 172.769531 140.132812 172.65625 C 137.738281 171.984375 135.828125 170.878906 133.578125 169.496094 Z M 129.546875 174.6875 C 131.085938 174.105469 132.863281 173.59375 134.847656 173.164062 C 135.449219 173.003906 136.019531 173 136.625 173 C 136.851562 172.996094 137.082031 172.996094 137.320312 172.988281 C 137.867188 172.964844 139.136719 173.050781 139.148438 173.054688 C 139.15625 173.054688 139.160156 173.050781 139.167969 173.050781 C 139.425781 173.136719 139.691406 173.21875 139.960938 173.296875 C 140.476562 173.421875 141.285156 173.488281 142.371094 173.496094 C 142.339844 173.695312 142.3125 173.894531 142.292969 174.097656 C 140.734375 173.101562 138.535156 173.675781 136.753906 174.148438 C 136.238281 174.285156 135.746094 174.414062 135.324219 174.492188 L 135.054688 174.539062 C 132.652344 174.96875 130.179688 175.414062 127.921875 175.203125 C 128.273438 175.078125 128.644531 174.96875 128.875 174.902344 C 129.144531 174.820312 129.382812 174.75 129.546875 174.6875 Z M 135.453125 177.460938 C 133.40625 177.542969 131.203125 177.207031 129.429688 176.539062 C 129.277344 176.472656 129.039062 176.390625 128.761719 176.296875 C 128.46875 176.195312 127.925781 176.007812 127.53125 175.824219 C 129.96875 176.121094 132.609375 175.652344 135.171875 175.191406 L 135.441406 175.144531 C 135.890625 175.0625 136.394531 174.929688 136.925781 174.789062 C 138.726562 174.3125 140.765625 173.773438 142.074219 174.746094 C 142.125 174.785156 142.179688 174.800781 142.238281 174.804688 C 142.222656 175.222656 142.226562 175.636719 142.253906 176.050781 C 141.832031 176.230469 141.410156 176.386719 141.058594 176.484375 C 140.113281 176.460938 139.179688 176.765625 138.304688 177.136719 C 137.449219 177.265625 136.226562 177.40625 135.453125 177.460938 Z M 133.894531 184.503906 C 133.816406 184.519531 133.703125 184.542969 133.5625 184.574219 C 128.824219 185.59375 128.265625 185.007812 128.199219 184.808594 C 128.15625 184.652344 128.144531 183.730469 132.546875 181.089844 L 132.601562 181.054688 C 132.972656 180.824219 133.332031 180.589844 133.691406 180.359375 C 134.84375 179.617188 135.929688 178.910156 137.25 178.339844 L 137.621094 178.167969 C 138.757812 177.644531 139.929688 177.101562 141.113281 177.148438 C 141.46875 177.144531 141.847656 177.175781 142.25 177.207031 C 142.296875 177.210938 142.34375 177.214844 142.390625 177.21875 C 142.4375 177.492188 142.492188 177.761719 142.5625 178.027344 C 141.152344 177.765625 139.222656 178.492188 137.90625 178.988281 C 137.734375 179.054688 137.648438 179.246094 137.710938 179.417969 C 137.777344 179.585938 137.96875 179.675781 138.140625 179.609375 C 139.402344 179.132812 141.511719 178.335938 142.707031 178.746094 C 142.730469 178.753906 142.757812 178.753906 142.78125 178.753906 C 142.816406 178.859375 142.851562 178.960938 142.890625 179.066406 C 140.941406 179.058594 138.570312 180.082031 137.121094 181.191406 C 135.980469 182.0625 134.5625 182.5625 133.195312 183.050781 C 132.851562 183.175781 132.511719 183.292969 132.183594 183.417969 C 132.011719 183.484375 131.925781 183.675781 131.988281 183.847656 C 132.054688 184.019531 132.246094 184.105469 132.417969 184.039062 C 132.746094 183.914062 133.078125 183.796875 133.417969 183.675781 C 134.835938 183.171875 136.300781 182.648438 137.523438 181.71875 C 138.949219 180.628906 141.3125 179.621094 143.144531 179.738281 C 143.199219 179.871094 143.257812 180.003906 143.316406 180.136719 C 143.070312 180.195312 142.792969 180.234375 142.480469 180.273438 C 141.671875 180.375 140.667969 180.503906 139.660156 181.121094 C 138.660156 181.738281 137.75 182.449219 136.929688 183.214844 C 135.589844 183.816406 134.097656 184.457031 133.894531 184.503906 Z M 104.882812 172.183594 C 105.277344 172.464844 105.679688 172.734375 106.070312 172.996094 C 107.273438 173.796875 108.410156 174.554688 109.378906 175.675781 C 111.542969 178.578125 112.046875 182.402344 110.757812 186.164062 C 110.207031 187.75 109.714844 187.765625 108.738281 187.792969 C 108.273438 187.808594 107.695312 187.824219 107.023438 188.019531 C 106.695312 188.105469 106.390625 188.21875 106.101562 188.347656 C 106.609375 187.875 107.144531 187.425781 107.652344 187.003906 C 108.671875 186.15625 109.550781 185.421875 109.953125 184.691406 C 111.335938 181.96875 110.230469 179.582031 108.820312 177.398438 C 107.203125 175.152344 105.292969 173.171875 103.453125 171.265625 C 103.320312 171.121094 103.15625 170.90625 102.980469 170.667969 C 103.058594 170.734375 103.136719 170.800781 103.214844 170.867188 C 103.789062 171.367188 104.332031 171.839844 104.882812 172.183594 Z M 105.242188 186.070312 C 104.9375 185.765625 104.65625 185.480469 104.523438 185.074219 C 104.246094 184.207031 104.621094 183.988281 105.304688 183.589844 C 105.941406 183.214844 106.738281 182.753906 106.949219 181.589844 C 106.953125 181.566406 106.957031 181.542969 106.957031 181.519531 C 106.914062 180.394531 106.867188 179.230469 106.480469 178.203125 C 105.886719 176.394531 104.675781 174.90625 103.5 173.472656 C 102.363281 172.085938 101.285156 170.761719 100.726562 169.179688 C 100.726562 169.179688 100.726562 169.179688 100.730469 169.179688 C 101.050781 169.140625 101.871094 170.269531 102.265625 170.8125 C 102.519531 171.164062 102.761719 171.492188 102.96875 171.71875 C 104.796875 173.617188 106.691406 175.578125 108.269531 177.773438 C 109.765625 180.089844 110.523438 182.101562 109.367188 184.382812 C 109.03125 184.992188 108.152344 185.722656 107.226562 186.496094 C 106.847656 186.808594 106.457031 187.140625 106.066406 187.484375 C 106.019531 186.855469 105.617188 186.449219 105.242188 186.070312 Z M 78.917969 173.457031 C 79.570312 173.386719 80.210938 173.578125 80.886719 173.78125 C 81.605469 173.996094 82.34375 174.21875 83.140625 174.125 C 83.152344 174.125 83.164062 174.125 83.171875 174.121094 C 83.917969 173.953125 84.59375 173.5 85.242188 173.0625 C 85.738281 172.726562 86.207031 172.410156 86.699219 172.222656 C 88.59375 171.378906 90.097656 171.175781 91.171875 171.617188 C 91.964844 171.949219 92.542969 172.617188 92.941406 173.667969 C 93.625 175.480469 93.578125 177.847656 92.175781 178.894531 C 88.941406 177.710938 85.023438 177.046875 80.839844 176.972656 C 79.742188 176.917969 78.574219 176.804688 77.441406 176.699219 C 75.769531 176.539062 74.054688 176.375 72.441406 176.378906 C 74.277344 175.121094 77.027344 173.863281 78.917969 173.457031 Z M 93.992188 184.40625 C 93.898438 184.785156 93.664062 185.074219 93.273438 185.28125 C 91.269531 186.359375 88.085938 184.660156 86.183594 183.644531 C 86.007812 183.550781 85.839844 183.460938 85.683594 183.378906 C 84.839844 182.71875 84.558594 182.59375 83.707031 182.507812 C 83.65625 182.503906 83.605469 182.511719 83.554688 182.527344 C 83.300781 182.625 83.078125 182.757812 82.859375 182.886719 C 82.507812 183.089844 82.203125 183.269531 81.921875 183.207031 C 81.898438 183.199219 81.871094 183.195312 81.847656 183.195312 C 80.835938 183.199219 80.210938 182.445312 79.546875 181.644531 C 79.34375 181.394531 79.132812 181.140625 78.917969 180.921875 C 78.007812 179.886719 77.019531 179.105469 75.617188 178.3125 C 74.917969 177.746094 74.039062 177.402344 73.1875 177.070312 C 73.171875 177.0625 73.15625 177.058594 73.140625 177.050781 C 74.519531 177.085938 75.964844 177.222656 77.375 177.359375 C 78.515625 177.46875 79.691406 177.578125 80.816406 177.636719 C 84.945312 177.707031 88.792969 178.363281 91.964844 179.523438 C 92.011719 179.59375 92.0625 179.671875 92.121094 179.757812 C 92.894531 180.910156 94.332031 183.054688 93.992188 184.40625 Z M 96.304688 210.46875 C 97.335938 210.894531 98.050781 211.511719 98.214844 212.128906 C 98.9375 214.441406 97.871094 216.367188 94.761719 218.367188 C 94.753906 218.371094 94.742188 218.378906 94.734375 218.386719 C 94.304688 218.734375 93.726562 219.003906 93.171875 219.261719 C 92.550781 219.550781 91.964844 219.824219 91.550781 220.199219 C 91.007812 220.675781 90.71875 221.234375 90.464844 221.726562 C 90.109375 222.414062 89.828125 222.957031 88.980469 223.171875 C 88.96875 223.175781 88.957031 223.179688 88.945312 223.183594 C 88.117188 223.496094 87.25 223.359375 86.410156 223.226562 C 85.90625 223.148438 85.425781 223.070312 84.984375 223.089844 C 84.582031 223.082031 84.070312 223.207031 83.527344 223.335938 C 82.949219 223.476562 82.269531 223.640625 81.765625 223.609375 C 82.363281 223.390625 82.976562 222.644531 83.574219 221.917969 C 83.921875 221.492188 84.285156 221.050781 84.503906 220.914062 C 85.148438 220.511719 85.792969 220.34375 86.417969 220.179688 C 87.324219 219.941406 88.261719 219.695312 89.0625 218.75 C 90.835938 216.722656 92.429688 213.09375 92.21875 210.300781 C 93.210938 209.816406 94.859375 209.875 96.304688 210.46875 Z M 90.980469 208.117188 C 91.132812 208.738281 91.300781 209.363281 91.515625 209.96875 C 91.90625 212.585938 90.289062 216.339844 88.558594 218.320312 C 87.890625 219.109375 87.128906 219.308594 86.25 219.539062 C 85.578125 219.714844 84.882812 219.898438 84.152344 220.351562 C 83.839844 220.546875 83.476562 220.988281 83.058594 221.5 C 82.847656 221.753906 82.59375 222.066406 82.339844 222.339844 C 82.789062 221.339844 82.867188 220.347656 82.941406 219.324219 C 83 218.585938 83.054688 217.824219 83.246094 217 C 83.476562 216.105469 84.144531 215.671875 84.851562 215.207031 C 85.730469 214.632812 86.726562 213.980469 86.628906 212.398438 C 86.609375 211.878906 86.414062 211.203125 86.1875 210.421875 C 85.789062 209.035156 85.292969 207.3125 85.855469 206.386719 C 86.066406 206.035156 86.425781 205.808594 86.953125 205.699219 C 87.90625 205.503906 88.742188 205.632812 89.433594 206.085938 C 90.066406 206.503906 90.585938 207.183594 90.980469 208.117188 Z M 126.109375 210.496094 C 125.773438 210 125.457031 209.535156 125.117188 209.117188 C 125.109375 209.109375 125.101562 209.101562 125.09375 209.09375 C 123.800781 207.785156 122.738281 206.332031 122.023438 204.898438 C 121.746094 204.273438 121.429688 203.621094 121.089844 202.925781 C 119.957031 200.589844 118.667969 197.941406 118.492188 195.597656 C 118.449219 194.507812 118.917969 193.800781 119.382812 193.691406 C 119.847656 193.578125 120.351562 194.011719 120.738281 194.859375 C 120.84375 195.070312 120.933594 195.273438 121.007812 195.476562 C 121.339844 196.355469 121.433594 197.171875 121.527344 198.085938 C 121.527344 198.089844 121.527344 198.09375 121.53125 198.097656 C 121.53125 198.121094 121.535156 198.144531 121.535156 198.164062 C 121.574219 198.53125 121.613281 198.910156 121.671875 199.304688 C 121.898438 200.984375 122.894531 201.601562 123.859375 202.195312 C 124.34375 202.496094 124.847656 202.804688 125.257812 203.253906 C 125.933594 204.007812 125.6875 204.40625 125.285156 205.066406 C 124.878906 205.726562 124.378906 206.546875 125.058594 207.789062 C 125.066406 207.800781 125.074219 207.8125 125.085938 207.824219 C 125.777344 208.757812 126.328125 209.648438 126.910156 211.195312 C 126.964844 211.332031 127.015625 211.519531 127.070312 211.71875 C 127.085938 211.78125 127.105469 211.84375 127.121094 211.90625 C 126.765625 211.460938 126.433594 210.976562 126.109375 210.496094 Z M 127.710938 211.542969 C 127.652344 211.328125 127.597656 211.125 127.535156 210.960938 C 127 209.550781 126.484375 208.597656 125.632812 207.449219 C 125.152344 206.558594 125.476562 206.027344 125.851562 205.410156 C 126.253906 204.753906 126.757812 203.9375 125.753906 202.8125 C 125.273438 202.289062 124.734375 201.957031 124.210938 201.632812 C 123.300781 201.070312 122.515625 200.585938 122.328125 199.210938 C 122.277344 198.847656 122.238281 198.492188 122.203125 198.144531 C 123.742188 195.996094 126.878906 194.082031 128.714844 194.796875 C 130.175781 195.363281 130.195312 197.453125 129.957031 199.105469 C 129.953125 199.117188 129.953125 199.128906 129.953125 199.136719 C 129.925781 199.710938 129.738281 200.296875 129.558594 200.863281 C 129.328125 201.574219 129.089844 202.3125 129.152344 203.082031 C 129.21875 203.640625 129.382812 204.050781 129.53125 204.414062 C 129.773438 205.019531 129.949219 205.460938 129.535156 206.375 C 128.597656 208.742188 128.074219 210.523438 128.117188 212.660156 C 127.9375 212.371094 127.8125 211.914062 127.710938 211.542969 Z M 159.488281 176.046875 C 159.589844 175.089844 159.445312 174.066406 159.078125 173.085938 C 158.578125 171.773438 157.714844 170.628906 156.636719 169.871094 C 155.699219 169.207031 154.625 168.863281 153.535156 168.867188 C 151.433594 168.882812 148.808594 169.597656 147.757812 171.554688 C 147.183594 172.621094 146.347656 174.726562 147.160156 176.882812 C 147.214844 177.023438 147.277344 177.164062 147.335938 177.285156 C 148.242188 179.386719 149.929688 181.011719 151.859375 181.636719 C 153.507812 182.171875 155.203125 181.96875 156.78125 181.035156 C 158.855469 179.601562 159.308594 177.789062 159.488281 176.046875 Z M 152.066406 181.007812 C 150.316406 180.441406 148.777344 178.953125 147.941406 177.011719 C 147.882812 176.890625 147.832031 176.769531 147.785156 176.648438 C 147.257812 175.253906 147.460938 173.511719 148.34375 171.867188 C 149.257812 170.164062 151.625 169.546875 153.539062 169.53125 C 154.488281 169.527344 155.425781 169.832031 156.253906 170.414062 C 157.222656 171.097656 158.003906 172.128906 158.453125 173.320312 C 158.789062 174.207031 158.917969 175.125 158.828125 175.980469 C 158.636719 177.8125 158.152344 179.28125 156.421875 180.476562 C 155.035156 181.296875 153.527344 181.480469 152.066406 181.007812 Z M 152.066406 181.007812 " fill-opacity="1" fill-rule="nonzero"/></g></g></g><g fill="#ad882e" fill-opacity="1"><g transform="translate(187.729182, 190.982565)"><g><path d="M 17.113281 1.296875 C 17.113281 0.183594 17.484375 -0.667969 18.261719 -1.371094 C 19.003906 -2.039062 19.964844 -2.40625 21.152344 -2.40625 C 22.300781 -2.40625 23.261719 -2.039062 24.078125 -1.371094 C 24.855469 -0.667969 25.261719 0.183594 25.261719 1.296875 C 25.261719 2.371094 24.855469 3.257812 24.078125 3.964844 C 23.261719 4.628906 22.300781 5 21.152344 5 C 19.964844 5 19.003906 4.628906 18.261719 3.964844 C 17.484375 3.257812 17.113281 2.371094 17.113281 1.296875 Z M 16.410156 -10.113281 L 9.632812 -20.484375 L 2.851562 -9.890625 L 1.445312 -10.742188 L 9.59375 -23.523438 L 17.929688 -10.890625 Z M 30.152344 -27.597656 L 29.707031 -5.371094 L 28.003906 -5.371094 L 28.410156 -27.597656 Z M 18.707031 1.296875 C 18.707031 2.074219 18.929688 2.667969 19.410156 3.039062 C 19.855469 3.40625 20.410156 3.59375 21.152344 3.59375 C 21.855469 3.59375 22.449219 3.40625 22.964844 3.039062 C 23.410156 2.667969 23.671875 2.074219 23.671875 1.296875 C 23.671875 0.628906 23.410156 0.0742188 22.964844 -0.332031 C 22.449219 -0.742188 21.855469 -0.964844 21.152344 -0.964844 C 20.410156 -0.964844 19.855469 -0.742188 19.410156 -0.332031 C 18.929688 0.0742188 18.707031 0.628906 18.707031 1.296875 Z M 18.707031 1.296875 "/></g></g></g><g fill="#ad882e" fill-opacity="1"><g transform="translate(221.057339, 190.982565)"><g><path d="M 4.925781 -18.375 L 4.703125 -28.003906 L 28.855469 -28.003906 L 29.042969 -18.742188 Z M 1.703125 -13.371094 L 1.703125 -14.890625 L 31.597656 -14.890625 L 31.597656 -13.410156 L 17.632812 -13.371094 L 17.59375 -7.222656 L 28.929688 -7.222656 L 28.894531 0.371094 L 6.113281 0.332031 L 6.113281 4.816406 L 29.671875 4.851562 L 29.671875 6.335938 L 4.371094 6.335938 L 4.40625 -1.183594 L 27.226562 -1.183594 L 27.261719 -5.703125 L 3.257812 -5.742188 L 3.257812 -7.222656 L 15.855469 -7.222656 L 15.890625 -13.371094 Z M 6.628906 -19.964844 L 27.335938 -20.1875 L 27.078125 -26.484375 L 6.484375 -26.449219 Z M 6.628906 -19.964844 "/></g></g></g></svg>